<svg width="24" height="24" viewBox="0 0 24 24" fill="none" xmlns="http://www.w3.org/2000/svg">
<g clip-path="url(#clip0_1411_1266)">
<path d="M11.9602 21.967H2.99002C2.43984 21.967 1.99336 21.5205 1.99336 20.9703V3.0301C1.99336 2.47993 2.43989 2.03345 2.99002 2.03345H11.9602C12.5113 2.03345 12.9568 1.58795 12.9568 1.03679C12.9568 0.485633 12.5113 0.0400391 11.9602 0.0400391H2.99002C1.34152 0.0400391 0 1.3816 0 3.0301V20.9703C0 22.6188 1.34152 23.9603 2.99002 23.9603H11.9602C12.5113 23.9603 12.9568 23.5148 12.9568 22.9636C12.9568 22.4125 12.5113 21.967 11.9602 21.967Z" fill="#1D4355"/>
<path d="M23.703 11.2905L17.6432 5.31037C17.2525 4.92366 16.6206 4.92867 16.2339 5.32036C15.8472 5.71205 15.8512 6.34294 16.2439 6.72966L20.5744 11.0034H8.97011C8.41895 11.0034 7.97345 11.4489 7.97345 12C7.97345 12.5512 8.41895 12.9967 8.97011 12.9967H20.5744L16.2439 17.2705C15.8512 17.6572 15.8482 18.2881 16.2339 18.6798C16.4292 18.8771 16.6864 18.9768 16.9435 18.9768C17.1967 18.9768 17.4498 18.8811 17.6432 18.6897L23.703 12.7096C23.8924 12.5223 24 12.2671 24 12C24 11.733 23.8934 11.4788 23.703 11.2905Z" fill="#1D4355"/>
</g>
<defs>
<clipPath id="clip0_1411_1266">
<rect width="24" height="24" fill="white"/>
</clipPath>
</defs>
</svg>
