<svg width="32" height="32" viewBox="0 0 32 32" fill="none" xmlns="http://www.w3.org/2000/svg">
<rect width="32" height="32" fill="white" fill-opacity="0.01"/>
<rect width="24" height="24" transform="translate(4 4)" fill="white" fill-opacity="0.01"/>
<path fill-rule="evenodd" clip-rule="evenodd" d="M18.995 14.9949C19.1825 15.1825 19.2878 15.4368 19.2878 15.7019C19.2878 15.9671 19.1825 16.2214 18.995 16.4089L14.402 21.0019C14.2157 21.1845 13.9649 21.2862 13.7041 21.2849C13.4432 21.2835 13.1935 21.1793 13.009 20.9949C12.8246 20.8105 12.7204 20.5607 12.7191 20.2999C12.7178 20.039 12.8194 19.7882 13.002 19.6019L16.902 15.7019L13.002 11.8019C12.8194 11.6157 12.7178 11.3648 12.7191 11.104C12.7204 10.8432 12.8246 10.5934 13.009 10.409C13.1935 10.2245 13.4432 10.1203 13.7041 10.119C13.9649 10.1177 14.2157 10.2194 14.402 10.4019L18.995 14.9949Z" fill="#42526E"/>
</svg>
