<svg width="126" height="96" viewBox="0 0 126 96" fill="none" xmlns="http://www.w3.org/2000/svg">
<path d="M110.203 36.6285L110.25 36.1875C110.25 16.6184 94.389 0.75 74.8125 0.75C61.6605 0.75 50.3131 7.995 44.2021 18.6344C41.5409 17.319 38.604 16.5 35.4375 16.5C24.5624 16.5 15.75 25.3124 15.75 36.1875L15.7965 36.6285C6.41099 42.093 0 52.158 0 63.75C0 81.0826 14.1826 95.25 31.5 95.25H55.125V63.75H39.375L63 32.25L86.625 63.75H70.875V95.25H94.5C111.833 95.25 126 81.0826 126 63.75C126 52.158 119.589 42.093 110.203 36.6285Z" fill="#3E965C"/>
</svg>
