<svg width="134" height="40" viewBox="0 0 134 40" fill="none" xmlns="http://www.w3.org/2000/svg">
<path d="M50.016 3.79246H52.9809L56.3668 13.1815L59.7344 3.79246H62.6993L57.9957 16H54.7379L50.016 3.79246ZM62.1141 11.5709C62.1141 10.7168 62.3093 9.94199 62.6998 9.2465C63.0902 8.53882 63.6332 7.97755 64.3287 7.5627C65.0242 7.14786 65.8111 6.94043 66.6896 6.94043C67.5559 6.94043 68.3246 7.14786 68.9957 7.5627C69.6668 7.96535 70.1854 8.53882 70.5514 9.28311C70.9296 10.0152 71.1188 10.8571 71.1188 11.8088V12.3213H64.5483C64.6215 12.9069 64.8838 13.395 65.3353 13.7854C65.7867 14.1759 66.3724 14.3711 67.0923 14.3711C67.5193 14.3711 67.9464 14.2918 68.3734 14.1332C68.8127 13.9746 69.1726 13.761 69.4533 13.4926L70.4782 14.9934C70.0389 15.396 69.496 15.7011 68.8493 15.9085C68.2148 16.1159 67.5437 16.2196 66.8361 16.2196C65.9454 16.2196 65.1401 16.0305 64.4202 15.6523C63.7003 15.2618 63.1329 14.7188 62.7181 14.0234C62.3154 13.3157 62.1141 12.4982 62.1141 11.5709ZM66.6896 8.78895C66.0308 8.78895 65.5183 8.99027 65.1523 9.39292C64.7862 9.78337 64.5727 10.2348 64.5117 10.7473H68.8676C68.831 10.247 68.6297 9.79557 68.2636 9.39292C67.9098 8.99027 67.3851 8.78895 66.6896 8.78895ZM72.7977 7.16006H75.1221V8.368C75.4393 7.96535 75.8542 7.62981 76.3666 7.36138C76.8791 7.09295 77.4038 6.95873 77.9406 6.95873V9.2282C77.782 9.1916 77.5685 9.17329 77.3 9.17329C76.9096 9.17329 76.4947 9.27091 76.0555 9.46613C75.6162 9.64915 75.3051 9.88098 75.1221 10.1616V16H72.7977V7.16006ZM80.546 5.8606C80.1677 5.8606 79.8383 5.72639 79.5576 5.45796C79.2892 5.17732 79.155 4.84788 79.155 4.46964C79.155 4.0914 79.2892 3.76806 79.5576 3.49963C79.8383 3.21899 80.1677 3.07868 80.546 3.07868C80.9364 3.07868 81.2658 3.21289 81.5343 3.48132C81.8027 3.74975 81.9369 4.07919 81.9369 4.46964C81.9369 4.84788 81.8027 5.17732 81.5343 5.45796C81.2658 5.72639 80.9364 5.8606 80.546 5.8606ZM79.3929 7.16006H81.7173V16H79.3929V7.16006ZM84.5345 9.1916H83.0704V7.16006H84.5345V6.6842C84.5345 5.73249 84.8091 4.9821 85.3581 4.43304C85.9194 3.88397 86.6393 3.60944 87.5178 3.60944C88.1767 3.60944 88.7379 3.73145 89.2016 3.97548L88.7257 5.65928C88.5183 5.51286 88.2682 5.43965 87.9753 5.43965C87.6337 5.43965 87.3653 5.54947 87.17 5.76909C86.9748 5.98872 86.8772 6.29376 86.8772 6.6842V7.16006H88.6708V9.1916H86.8772V16H84.5345V9.1916ZM91.1599 5.8606C90.7817 5.8606 90.4522 5.72639 90.1716 5.45796C89.9032 5.17732 89.769 4.84788 89.769 4.46964C89.769 4.0914 89.9032 3.76806 90.1716 3.49963C90.4522 3.21899 90.7817 3.07868 91.1599 3.07868C91.5504 3.07868 91.8798 3.21289 92.1482 3.48132C92.4167 3.74975 92.5509 4.07919 92.5509 4.46964C92.5509 4.84788 92.4167 5.17732 92.1482 5.45796C91.8798 5.72639 91.5504 5.8606 91.1599 5.8606ZM90.0069 7.16006H92.3313V16H90.0069V7.16006ZM99.9464 15.0849C99.6414 15.4387 99.2387 15.7194 98.7384 15.9268C98.2504 16.122 97.7196 16.2196 97.1462 16.2196C96.6459 16.2196 96.1578 16.1098 95.682 15.8902C95.2183 15.6706 94.834 15.3411 94.5289 14.9019C94.2239 14.4504 94.0714 13.9136 94.0714 13.2913C94.0714 12.6446 94.2239 12.1138 94.5289 11.699C94.834 11.2719 95.2183 10.9608 95.682 10.7656C96.1456 10.5704 96.6337 10.4727 97.1462 10.4727C97.744 10.4727 98.287 10.5643 98.775 10.7473C99.2631 10.9303 99.6536 11.1987 99.9464 11.5526V10.3263C99.9464 9.87488 99.7695 9.51494 99.4156 9.2465C99.0618 8.97807 98.592 8.84386 98.0064 8.84386C97.0424 8.84386 96.1822 9.1916 95.4258 9.88708L94.5473 8.3314C95.0719 7.86774 95.6637 7.52 96.3226 7.28817C96.9936 7.05634 97.6891 6.94043 98.409 6.94043C99.5437 6.94043 100.471 7.20276 101.191 7.72742C101.911 8.25209 102.271 9.10619 102.271 10.2897V16H99.9464V15.0849ZM99.9464 12.7788C99.7634 12.5348 99.501 12.3457 99.1594 12.2115C98.83 12.0772 98.47 12.0101 98.0796 12.0101C97.6037 12.0101 97.2072 12.1321 96.8899 12.3762C96.5727 12.6202 96.4141 12.9435 96.4141 13.3462C96.4141 13.7488 96.5727 14.0661 96.8899 14.2979C97.2072 14.5297 97.6037 14.6456 98.0796 14.6456C98.47 14.6456 98.83 14.5785 99.1594 14.4443C99.501 14.3101 99.7634 14.121 99.9464 13.8769V12.7788ZM104.576 3.79246H106.901V8.29479C107.242 7.85554 107.651 7.52 108.127 7.28817C108.603 7.05634 109.103 6.94043 109.628 6.94043C110.384 6.94043 111.055 7.12955 111.641 7.5078C112.239 7.88604 112.702 8.42901 113.032 9.13669C113.373 9.83217 113.544 10.6497 113.544 11.5892C113.544 12.5531 113.373 13.3828 113.032 14.0783C112.702 14.7738 112.239 15.3045 111.641 15.6706C111.043 16.0366 110.372 16.2196 109.628 16.2196C109.103 16.2196 108.603 16.1037 108.127 15.8719C107.663 15.6401 107.254 15.3106 106.901 14.8836V16H104.576V3.79246ZM106.901 13.1632C107.096 13.4438 107.383 13.6817 107.761 13.8769C108.139 14.06 108.517 14.1515 108.896 14.1515C109.567 14.1515 110.11 13.9197 110.524 13.456C110.939 12.9801 111.147 12.3579 111.147 11.5892C111.147 10.8205 110.939 10.1982 110.524 9.72236C110.11 9.2465 109.567 9.00857 108.896 9.00857C108.517 9.00857 108.139 9.10619 107.761 9.30141C107.383 9.49663 107.096 9.74066 106.901 10.0335V13.1632ZM115.3 3.79246H117.625V16H115.3V3.79246ZM119.362 11.5709C119.362 10.7168 119.557 9.94199 119.948 9.2465C120.338 8.53882 120.881 7.97755 121.577 7.5627C122.272 7.14786 123.059 6.94043 123.938 6.94043C124.804 6.94043 125.573 7.14786 126.244 7.5627C126.915 7.96535 127.433 8.53882 127.799 9.28311C128.178 10.0152 128.367 10.8571 128.367 11.8088V12.3213H121.796C121.869 12.9069 122.132 13.395 122.583 13.7854C123.035 14.1759 123.62 14.3711 124.34 14.3711C124.767 14.3711 125.194 14.2918 125.621 14.1332C126.061 13.9746 126.421 13.761 126.701 13.4926L127.726 14.9934C127.287 15.396 126.744 15.7011 126.097 15.9085C125.463 16.1159 124.792 16.2196 124.084 16.2196C123.193 16.2196 122.388 16.0305 121.668 15.6523C120.948 15.2618 120.381 14.7188 119.966 14.0234C119.563 13.3157 119.362 12.4982 119.362 11.5709ZM123.938 8.78895C123.279 8.78895 122.766 8.99027 122.4 9.39292C122.034 9.78337 121.821 10.2348 121.76 10.7473H126.115C126.079 10.247 125.878 9.79557 125.512 9.39292C125.158 8.99027 124.633 8.78895 123.938 8.78895ZM49.2153 23.7925H57.8539V26.0253H51.8142V28.6791H57.7258V30.912H51.8142V33.7488H57.8539V36H49.2153V23.7925ZM65.907 34.8836C65.5532 35.3106 65.1383 35.6401 64.6625 35.8719C64.1988 36.1037 63.7047 36.2196 63.18 36.2196C62.4357 36.2196 61.7646 36.0366 61.1668 35.6706C60.5689 35.3045 60.0991 34.7738 59.7575 34.0783C59.4281 33.3828 59.2633 32.5531 59.2633 31.5892C59.2633 30.6497 59.4281 29.8322 59.7575 29.1367C60.0991 28.429 60.5628 27.886 61.1485 27.5078C61.7463 27.1296 62.4235 26.9404 63.18 26.9404C63.7047 26.9404 64.2049 27.0563 64.6808 27.2882C65.1566 27.52 65.5654 27.8555 65.907 28.2948V23.7925H68.2497V36H65.907V34.8836ZM65.907 30.0152C65.6996 29.7224 65.4068 29.4844 65.0285 29.3014C64.6625 29.1062 64.2842 29.0086 63.8938 29.0086C63.2349 29.0086 62.698 29.2465 62.2832 29.7224C61.8683 30.1982 61.6609 30.8205 61.6609 31.5892C61.6609 32.3457 61.8683 32.9618 62.2832 33.4377C62.698 33.9136 63.2349 34.1515 63.8938 34.1515C64.2842 34.1515 64.6625 34.06 65.0285 33.8769C65.4068 33.6817 65.6996 33.4377 65.907 33.1449V30.0152ZM76.5211 34.8836C76.1795 35.2618 75.7402 35.5791 75.2034 35.8353C74.6787 36.0915 74.0808 36.2196 73.4098 36.2196C72.458 36.2196 71.7443 35.9756 71.2684 35.4875C70.7925 34.9995 70.5546 34.3162 70.5546 33.4377V27.1601H72.879V32.5226C72.879 33.1083 73.0193 33.5292 73.2999 33.7854C73.5806 34.0295 73.9832 34.1515 74.5079 34.1515C74.9227 34.1515 75.3071 34.0539 75.6609 33.8586C76.0148 33.6634 76.3015 33.4255 76.5211 33.1449V27.1601H78.8455V36H76.5211V34.8836ZM80.5861 31.5709C80.5861 30.6802 80.7874 29.8871 81.19 29.1916C81.5927 28.4839 82.1478 27.9348 82.8555 27.5444C83.5632 27.1418 84.3685 26.9404 85.2714 26.9404C86.1133 26.9404 86.821 27.0929 87.3945 27.398C87.9801 27.703 88.4377 28.0874 88.7671 28.551L87.248 29.9603C86.8088 29.3258 86.1865 29.0086 85.3812 29.0086C84.6735 29.0086 84.094 29.2465 83.6425 29.7224C83.2033 30.186 82.9836 30.8022 82.9836 31.5709C82.9836 32.3396 83.2033 32.9618 83.6425 33.4377C84.094 33.9136 84.6735 34.1515 85.3812 34.1515C85.7717 34.1515 86.1255 34.0722 86.4428 33.9136C86.76 33.7427 87.0284 33.5048 87.248 33.1998L88.7671 34.609C88.4377 35.0727 87.9801 35.457 87.3945 35.7621C86.821 36.0671 86.1133 36.2196 85.2714 36.2196C84.3685 36.2196 83.5632 36.0244 82.8555 35.634C82.1478 35.2313 81.5927 34.6822 81.19 33.9868C80.7874 33.2791 80.5861 32.4738 80.5861 31.5709ZM95.5943 35.0849C95.2892 35.4387 94.8866 35.7194 94.3863 35.9268C93.8983 36.122 93.3675 36.2196 92.794 36.2196C92.2938 36.2196 91.8057 36.1098 91.3299 35.8902C90.8662 35.6706 90.4819 35.3411 90.1768 34.9019C89.8718 34.4504 89.7193 33.9136 89.7193 33.2913C89.7193 32.6446 89.8718 32.1138 90.1768 31.699C90.4819 31.2719 90.8662 30.9608 91.3299 30.7656C91.7935 30.5704 92.2816 30.4727 92.794 30.4727C93.3919 30.4727 93.9349 30.5643 94.4229 30.7473C94.911 30.9303 95.3014 31.1987 95.5943 31.5526V30.3263C95.5943 29.8749 95.4173 29.5149 95.0635 29.2465C94.7097 28.9781 94.2399 28.8439 93.6542 28.8439C92.6903 28.8439 91.8301 29.1916 91.0736 29.8871L90.1951 28.3314C90.7198 27.8677 91.3116 27.52 91.9704 27.2882C92.6415 27.0563 93.337 26.9404 94.0569 26.9404C95.1916 26.9404 96.1189 27.2028 96.8388 27.7274C97.5587 28.2521 97.9186 29.1062 97.9186 30.2897V36H95.5943V35.0849ZM95.5943 32.7788C95.4112 32.5348 95.1489 32.3457 94.8073 32.2115C94.4778 32.0772 94.1179 32.0101 93.7274 32.0101C93.2516 32.0101 92.855 32.1321 92.5378 32.3762C92.2206 32.6202 92.0619 32.9435 92.0619 33.3462C92.0619 33.7488 92.2206 34.0661 92.5378 34.2979C92.855 34.5297 93.2516 34.6456 93.7274 34.6456C94.1179 34.6456 94.4778 34.5785 94.8073 34.4443C95.1489 34.3101 95.4112 34.121 95.5943 33.8769V32.7788ZM103.189 36.2196C102.372 36.2196 101.749 36.0122 101.322 35.5974C100.895 35.1825 100.682 34.5846 100.682 33.8037V29.1916H99.2175V27.1601H100.682V24.7442H103.024V27.1601H104.818V29.1916H103.024V33.1815C103.024 33.4621 103.098 33.6939 103.244 33.8769C103.39 34.06 103.586 34.1515 103.83 34.1515C104 34.1515 104.159 34.1271 104.306 34.0783C104.452 34.0295 104.562 33.9685 104.635 33.8953L105.129 35.6523C104.702 36.0305 104.055 36.2196 103.189 36.2196ZM107.561 25.8606C107.183 25.8606 106.854 25.7264 106.573 25.458C106.305 25.1773 106.17 24.8479 106.17 24.4696C106.17 24.0914 106.305 23.7681 106.573 23.4996C106.854 23.219 107.183 23.0787 107.561 23.0787C107.952 23.0787 108.281 23.2129 108.55 23.4813C108.818 23.7498 108.952 24.0792 108.952 24.4696C108.952 24.8479 108.818 25.1773 108.55 25.458C108.281 25.7264 107.952 25.8606 107.561 25.8606ZM106.408 27.1601H108.733V36H106.408V27.1601ZM115.137 36.2196C114.198 36.2196 113.374 36.0122 112.666 35.5974C111.959 35.1825 111.416 34.6212 111.037 33.9136C110.659 33.2059 110.47 32.425 110.47 31.5709C110.47 30.729 110.659 29.9542 111.037 29.2465C111.416 28.5388 111.959 27.9776 112.666 27.5627C113.374 27.1479 114.198 26.9404 115.137 26.9404C116.089 26.9404 116.919 27.1479 117.626 27.5627C118.334 27.9776 118.877 28.5388 119.255 29.2465C119.633 29.9542 119.822 30.729 119.822 31.5709C119.822 32.425 119.633 33.2059 119.255 33.9136C118.877 34.6212 118.334 35.1825 117.626 35.5974C116.919 36.0122 116.089 36.2196 115.137 36.2196ZM115.137 34.1515C115.833 34.1515 116.382 33.9075 116.784 33.4194C117.199 32.9191 117.407 32.303 117.407 31.5709C117.407 30.851 117.199 30.247 116.784 29.759C116.382 29.2587 115.833 29.0086 115.137 29.0086C114.442 29.0086 113.893 29.2587 113.49 29.759C113.087 30.247 112.886 30.851 112.886 31.5709C112.886 32.303 113.087 32.9191 113.49 33.4194C113.893 33.9075 114.442 34.1515 115.137 34.1515ZM127.513 30.6558C127.513 30.0701 127.373 29.6492 127.092 29.3929C126.812 29.1367 126.409 29.0086 125.884 29.0086C125.457 29.0086 125.067 29.1123 124.713 29.3197C124.371 29.5149 124.091 29.759 123.871 30.0518V36H121.547V27.1601H123.871V28.3131C124.188 27.9348 124.616 27.6115 125.152 27.3431C125.689 27.0746 126.293 26.9404 126.964 26.9404C127.916 26.9404 128.63 27.1906 129.106 27.6908C129.594 28.1911 129.838 28.8805 129.838 29.759V36H127.513V30.6558Z" fill="#048F46"/>
<path d="M35.6531 25.2797C35.6531 27.7297 33.9283 30.7286 31.8115 31.9438L22.2661 37.4515C20.1492 38.6667 16.6799 38.6667 14.5631 37.4515L5.01771 31.9438C2.90086 30.7286 1.17603 27.7297 1.17603 25.2797V14.2642C1.17603 11.8142 2.90086 8.81533 5.01771 7.6001L14.5631 2.09239C16.6799 0.877163 20.1492 0.877163 22.2661 2.09239L31.8115 7.6001C33.9283 8.81533 35.6531 11.8142 35.6531 14.2642V25.2797Z" fill="#EAF3EA"/>
<path d="M18.4048 39.5487C16.8171 39.5487 15.2099 39.1959 13.9751 38.4707L4.42969 32.963C1.94044 31.5322 0 28.1413 0 25.2796V14.2642C0 11.3829 1.94044 8.01167 4.42969 6.58084L13.9751 1.07312C16.4643 -0.357707 20.3648 -0.357707 22.8541 1.07312L32.3995 6.58084C34.8887 8.01167 36.8292 11.4025 36.8292 14.2642V25.2796C36.8292 28.1609 34.8887 31.5322 32.3995 32.963L22.8541 38.4707C21.5996 39.1763 20.012 39.5487 18.4048 39.5487ZM18.4048 2.32755C17.2092 2.32755 16.0331 2.58235 15.1511 3.09196L5.60572 8.59968C3.84168 9.6189 2.35205 12.2062 2.35205 14.2446V25.26C2.35205 27.2985 3.84168 29.8857 5.60572 30.9049L15.1511 36.4126C16.9152 37.4319 19.914 37.4319 21.678 36.4126L31.2234 30.9049C32.9875 29.8857 34.4771 27.2985 34.4771 25.26V14.2446C34.4771 12.2062 32.9875 9.6189 31.2234 8.59968L21.678 3.09196C20.796 2.58235 19.6004 2.32755 18.4048 2.32755Z" fill="#048F46"/>
<path d="M8.17334 21.6732L10.8586 27.8865L15.4647 11.6182H23.05" fill="#EAF3EA"/>
<path d="M10.8586 29.0625C10.3882 29.0625 9.95698 28.7881 9.78058 28.3569L7.09533 22.1436C6.84052 21.5556 7.11493 20.85 7.70294 20.5952C8.29095 20.3404 8.99657 20.6148 9.25137 21.2028L10.6234 24.378L14.3279 11.285C14.4651 10.7754 14.9355 10.4225 15.4647 10.4225H23.0501C23.6969 10.4225 24.2261 10.9518 24.2261 11.5986C24.2261 12.2454 23.6969 12.7746 23.0501 12.7746H16.3467L11.9954 28.1805C11.8582 28.6509 11.4466 29.0037 10.937 29.0429C10.9174 29.0625 10.8782 29.0625 10.8586 29.0625Z" fill="#048F46"/>
<path d="M28.6558 29.0822L17.5424 29.0626C16.8955 29.0626 16.3663 28.5333 16.3663 27.8865C16.3663 27.2397 16.8955 26.7105 17.5424 26.7105L28.6558 26.7301C29.3026 26.7301 29.8318 27.2593 29.8318 27.9061C29.8318 28.5529 29.3026 29.0822 28.6558 29.0822Z" fill="#048F46"/>
<path d="M25.8529 20.948L17.5228 20.9284C16.876 20.9284 16.3467 20.3992 16.3467 19.7524C16.3467 19.1056 16.876 18.5764 17.5228 18.5764L25.8529 18.596C26.4997 18.596 27.029 19.1252 27.029 19.772C27.029 20.4188 26.4997 20.948 25.8529 20.948Z" fill="#048F46"/>
</svg>
