<svg width="126" height="60" viewBox="0 0 126 60" fill="none" xmlns="http://www.w3.org/2000/svg">
<path d="M57.8441 37.926C57.8441 41.5753 55.047 46.0421 51.6142 47.8522L36.1346 56.0559C32.7018 57.866 27.0758 57.866 23.643 56.0559L8.16342 47.8522C4.73059 46.0421 1.93347 41.5753 1.93347 37.926V21.5186C1.93347 17.8692 4.73059 13.4024 8.16342 11.5923L23.643 3.38862C27.0758 1.57855 32.7018 1.57855 36.1346 3.38862L51.6142 11.5923C55.047 13.4024 57.8441 17.8692 57.8441 21.5186V37.926Z" fill="#EAF3EA"/>
<path d="M29.8729 59.1798C27.2983 59.1798 24.6919 58.6543 22.6894 57.5741L7.20988 49.3704C3.17313 47.2391 0.0263672 42.1884 0.0263672 37.926V21.5186C0.0263672 17.2269 3.17313 12.2054 7.20988 10.0742L22.6894 1.87051C26.7262 -0.260709 33.0515 -0.260709 37.0882 1.87051L52.5677 10.0742C56.6045 12.2054 59.7513 17.2561 59.7513 21.5186V37.926C59.7513 42.2176 56.6045 47.2391 52.5677 49.3704L37.0882 57.5741C35.054 58.6251 32.4793 59.1798 29.8729 59.1798ZM29.8729 3.73897C27.934 3.73897 26.0269 4.1185 24.5965 4.87757L9.11701 13.0813C6.25632 14.5994 3.84062 18.4531 3.84062 21.4894V37.8968C3.84062 40.9331 6.25632 44.7868 9.11701 46.3049L24.5965 54.5086C27.4572 56.0267 32.3204 56.0267 35.1811 54.5086L50.6606 46.3049C53.5213 44.7868 55.937 40.9331 55.937 37.8968V21.4894C55.937 18.4531 53.5213 14.5994 50.6606 13.0813L35.1811 4.87757C33.7508 4.1185 31.8118 3.73897 29.8729 3.73897Z" fill="#048F46"/>
<path d="M13.2808 32.5541L17.6354 41.8089L25.105 17.5772H37.406" fill="#EAF3EA"/>
<path d="M17.6355 43.5606C16.8727 43.5606 16.1734 43.1519 15.8873 42.5096L11.5327 33.2548C11.1195 32.379 11.5645 31.328 12.5181 30.9485C13.4716 30.5689 14.6159 30.9777 15.0291 31.8535L17.2541 36.583L23.2616 17.081C23.4841 16.3219 24.2469 15.7964 25.1051 15.7964H37.4061C38.455 15.7964 39.3132 16.5846 39.3132 17.5481C39.3132 18.5115 38.455 19.2998 37.4061 19.2998H26.5355L19.4791 42.2468C19.2566 42.9475 18.5891 43.473 17.7627 43.5314C17.7309 43.5606 17.6673 43.5606 17.6355 43.5606Z" fill="#048F46"/>
<path d="M46.4969 43.5898L28.4745 43.5606C27.4256 43.5606 26.5674 42.7724 26.5674 41.8089C26.5674 40.8455 27.4256 40.0573 28.4745 40.0573L46.4969 40.0864C47.5458 40.0864 48.404 40.8747 48.404 41.8381C48.404 42.8016 47.5458 43.5898 46.4969 43.5898Z" fill="#048F46"/>
<path d="M41.9515 31.474L28.4427 31.4448C27.3937 31.4448 26.5355 30.6565 26.5355 29.6931C26.5355 28.7297 27.3937 27.9414 28.4427 27.9414L41.9515 27.9706C43.0004 27.9706 43.8586 28.7589 43.8586 29.7223C43.8586 30.6857 43.0004 31.474 41.9515 31.474Z" fill="#048F46"/>
<path d="M73.2152 26.137L70.0002 17.952H72.0151L74.3287 24.2391L76.6423 17.952H78.6516L75.4422 26.137H73.2152Z" fill="#1F8F45"/>
<path d="M78.2582 23.1673C78.2582 21.4485 79.5587 20.0621 81.3839 20.0621C83.2091 20.0621 84.4119 21.3871 84.4119 23.3234V23.6917H79.9215C79.9726 24.074 80.181 24.424 80.5041 24.6702C80.8273 24.9164 81.2408 25.0404 81.6602 25.0166C82.2535 25.0107 82.8236 24.8049 83.2621 24.4386L83.9737 25.4617C83.2873 26.0144 82.3976 26.3078 81.4844 26.2828C79.6452 26.2853 78.2582 25.0704 78.2582 23.1673ZM81.3839 21.3385C81.0059 21.3288 80.639 21.456 80.3627 21.6925C80.0864 21.929 79.9228 22.2558 79.9076 22.6021H82.8853C82.8797 22.428 82.836 22.2568 82.757 22.0984C82.678 21.9401 82.5652 21.7979 82.4253 21.6801C82.2854 21.5624 82.1211 21.4715 81.9423 21.4128C81.7634 21.3541 81.5736 21.3289 81.3839 21.3385Z" fill="#1F8F45"/>
<path d="M85.5642 26.137V20.2079H87.1522V21.006C87.3793 20.7301 87.6692 20.5028 88.0017 20.3399C88.3342 20.1769 88.7014 20.0821 89.0778 20.0621V21.584C88.9349 21.5551 88.7887 21.5422 88.6424 21.5457C88.3555 21.5524 88.0735 21.6163 87.8162 21.7329C87.5588 21.8495 87.3323 22.016 87.1522 22.2209V26.137H85.5642Z" fill="#1F8F45"/>
<path d="M89.9179 18.6374C89.9109 18.5198 89.9302 18.4021 89.9745 18.2914C90.0188 18.1808 90.0873 18.0797 90.1757 17.9941C90.2641 17.9086 90.3706 17.8404 90.4887 17.7939C90.6068 17.7473 90.734 17.7233 90.8626 17.7233C90.9911 17.7233 91.1184 17.7473 91.2365 17.7939C91.3546 17.8404 91.4611 17.9086 91.5495 17.9941C91.6379 18.0797 91.7063 18.1808 91.7507 18.2914C91.795 18.4021 91.8142 18.5198 91.8073 18.6374C91.8142 18.7551 91.795 18.8728 91.7507 18.9834C91.7063 19.0941 91.6379 19.1952 91.5495 19.2808C91.4611 19.3663 91.3546 19.4345 91.2365 19.481C91.1184 19.5276 90.9911 19.5516 90.8626 19.5516C90.734 19.5516 90.6068 19.5276 90.4887 19.481C90.3706 19.4345 90.2641 19.3663 90.1757 19.2808C90.0873 19.1952 90.0188 19.0941 89.9745 18.9834C89.9302 18.8728 89.9109 18.7551 89.9179 18.6374ZM90.0686 26.137V20.2079H91.6566V26.137H90.0686Z" fill="#1F8F45"/>
<path d="M93.5961 26.137V21.5713H92.6054V20.2079H93.6073V19.9522C93.6073 18.5658 94.4697 17.8164 95.6334 17.8164C96.0341 17.8113 96.4297 17.8993 96.7832 18.0722L96.4483 19.2309C96.2955 19.1415 96.1158 19.0985 95.9348 19.1081C95.4855 19.1081 95.1841 19.392 95.1841 19.9675V20.2233H96.4093V21.5866H95.1841V26.137H93.5961ZM97.1739 18.6374C97.167 18.5198 97.1862 18.4021 97.2305 18.2914C97.2749 18.1808 97.3433 18.0797 97.4317 17.9941C97.5201 17.9086 97.6266 17.8404 97.7447 17.7939C97.8628 17.7473 97.9901 17.7233 98.1186 17.7233C98.2472 17.7233 98.3744 17.7473 98.4925 17.7939C98.6106 17.8404 98.7171 17.9086 98.8055 17.9941C98.8939 18.0797 98.9624 18.1808 99.0067 18.2914C99.051 18.4021 99.0703 18.5198 99.0633 18.6374C99.0703 18.7551 99.051 18.8728 99.0067 18.9834C98.9624 19.0941 98.8939 19.1952 98.8055 19.2808C98.7171 19.3663 98.6106 19.4345 98.4925 19.481C98.3744 19.5276 98.2472 19.5516 98.1186 19.5516C97.9901 19.5516 97.8628 19.5276 97.7447 19.481C97.6266 19.4345 97.5201 19.3663 97.4317 19.2808C97.3433 19.1952 97.2749 19.0941 97.2305 18.9834C97.1862 18.8728 97.167 18.7551 97.1739 18.6374ZM97.3246 26.137V20.2079H98.9126V26.137H97.3246Z" fill="#1F8F45"/>
<path d="M104.118 26.137V25.5129C103.883 25.7652 103.588 25.9654 103.257 26.0983C102.925 26.2312 102.565 26.2934 102.203 26.2802C101.923 26.2835 101.645 26.2346 101.387 26.1364C101.128 26.0383 100.894 25.8929 100.698 25.7091C100.503 25.5254 100.35 25.3071 100.249 25.0676C100.149 24.8281 100.102 24.5723 100.113 24.3158C100.113 22.9167 101.229 22.4026 102.203 22.4026C102.561 22.3835 102.919 22.4386 103.251 22.5639C103.582 22.6893 103.879 22.8815 104.118 23.1264V22.3821C104.118 21.781 103.593 21.3871 102.792 21.3871C102.466 21.3919 102.144 21.4563 101.845 21.5766C101.547 21.697 101.278 21.8708 101.053 22.088L100.42 20.9932C101.134 20.3794 102.081 20.0454 103.06 20.0622C104.455 20.0622 105.714 20.6019 105.714 22.3079V26.137H104.118ZM104.118 24.7123V23.9782C103.965 23.8047 103.77 23.6665 103.549 23.575C103.327 23.4834 103.085 23.441 102.842 23.4513C102.214 23.4513 101.704 23.7812 101.704 24.3465C101.704 24.9118 102.214 25.2315 102.842 25.2315C103.084 25.243 103.326 25.2022 103.547 25.1124C103.769 25.0227 103.964 24.8865 104.118 24.7148V24.7123Z" fill="#1F8F45"/>
<path d="M107.282 26.137V17.952H108.87V20.9702C109.077 20.689 109.356 20.459 109.684 20.3006C110.011 20.1422 110.376 20.0603 110.746 20.0622C112.286 20.0622 113.425 21.2388 113.425 23.1674C113.425 25.1574 112.272 26.2854 110.746 26.2854C110.376 26.2827 110.012 26.198 109.685 26.0385C109.359 25.8791 109.079 25.6496 108.87 25.3697V26.137H107.282ZM110.249 24.8965C111.161 24.8965 111.773 24.1956 111.773 23.1648C111.773 22.134 111.161 21.446 110.249 21.446C109.976 21.4539 109.71 21.5203 109.47 21.6398C109.231 21.7593 109.025 21.9286 108.87 22.134V24.234C109.029 24.4346 109.235 24.599 109.475 24.7144C109.714 24.8297 109.979 24.8929 110.249 24.899V24.8965Z" fill="#1F8F45"/>
<path d="M114.614 26.137V17.952H116.202V26.137H114.614Z" fill="#1F8F45"/>
<path d="M117.391 23.1673C117.391 21.4485 118.694 20.0621 120.519 20.0621C122.344 20.0621 123.547 21.3871 123.547 23.3234V23.6917H119.057C119.11 24.0721 119.319 24.4198 119.641 24.6644C119.963 24.909 120.375 25.0322 120.793 25.009C121.386 25.0021 121.956 24.7965 122.395 24.4309L123.106 25.454C122.42 26.0065 121.53 26.2999 120.617 26.2751C118.78 26.2853 117.391 25.0704 117.391 23.1673ZM120.514 21.3385C120.135 21.3281 119.768 21.4551 119.492 21.6917C119.215 21.9284 119.052 22.2556 119.037 22.6021H122.021C122.015 22.4276 121.971 22.2559 121.892 22.0972C121.812 21.9385 121.699 21.796 121.559 21.6782C121.418 21.5604 121.253 21.4696 121.074 21.4112C120.894 21.3529 120.704 21.3281 120.514 21.3385Z" fill="#1F8F45"/>
<path d="M70.8766 40.8726V32.6876H76.7819V34.2223H72.6515V35.9411H76.6982V37.4758H72.6515V39.343H76.7819V40.8777L70.8766 40.8726Z" fill="#1F8F45"/>
<path d="M82.2796 40.8725V40.1052C82.0723 40.3835 81.7943 40.6116 81.4696 40.7698C81.1449 40.9279 80.7831 41.0115 80.4154 41.0132C78.9028 41.0132 77.739 39.8852 77.739 37.8952C77.739 35.9666 78.8777 34.79 80.4154 34.79C80.7842 34.7893 81.1476 34.8723 81.4729 35.0316C81.7982 35.1909 82.0754 35.4217 82.2796 35.7032V32.6824H83.8815V40.8674L82.2796 40.8725ZM82.2796 38.9567V36.8568C82.1287 36.652 81.9261 36.4838 81.689 36.3662C81.4518 36.2486 81.1873 36.1853 80.9177 36.1815C80.0023 36.1815 79.3772 36.8823 79.3772 37.9004C79.3772 38.9184 80.0023 39.632 80.9177 39.632C81.1873 39.6282 81.4518 39.5649 81.689 39.4473C81.9261 39.3298 82.1287 39.1615 82.2796 38.9567Z" fill="#1F8F45"/>
<path d="M89.5359 40.8726V40.1232C89.2733 40.4046 88.9471 40.6304 88.58 40.785C88.2128 40.9395 87.8134 41.0192 87.4093 41.0184C86.0837 41.0184 85.4558 40.3074 85.4558 39.1538V34.941H87.0521V38.5399C87.0521 39.361 87.4903 39.6321 88.1684 39.6321C88.4378 39.6242 88.7016 39.5591 88.9389 39.4419C89.1762 39.3248 89.3805 39.1587 89.5359 38.9568V34.941H91.1267V40.8726H89.5359Z" fill="#1F8F45"/>
<path d="M92.3264 37.903C92.3264 36.087 93.6771 34.7978 95.5274 34.7978C95.9894 34.7763 96.4498 34.862 96.866 35.0472C97.2822 35.2323 97.6406 35.5108 97.9079 35.8567L96.8698 36.8159C96.7386 36.6149 96.5512 36.4496 96.327 36.3372C96.1028 36.2247 95.8498 36.1693 95.5944 36.1765C94.6316 36.1765 93.9562 36.8645 93.9562 37.8953C93.9562 38.9261 94.6316 39.627 95.5944 39.627C95.8504 39.629 96.1026 39.5699 96.3262 39.4555C96.5498 39.3412 96.7371 39.1755 96.8698 38.9747L97.9079 39.9493C97.642 40.2998 97.2833 40.5827 96.8655 40.7715C96.4476 40.9603 95.9844 41.0488 95.519 41.0287C93.6715 41.0184 92.3264 39.7293 92.3264 37.903Z" fill="#1F8F45"/>
<path d="M102.58 40.8726V40.2459C102.345 40.4983 102.051 40.6984 101.719 40.8314C101.387 40.9643 101.027 41.0265 100.665 41.0133C100.385 41.0166 100.108 40.9677 99.8489 40.8695C99.5901 40.7713 99.3559 40.6259 99.1604 40.4422C98.9649 40.2584 98.8121 40.0402 98.7115 39.8007C98.6109 39.5611 98.5645 39.3053 98.5752 39.0489C98.5752 37.6497 99.6915 37.1331 100.665 37.1331C101.024 37.1145 101.382 37.1701 101.713 37.2959C102.045 37.4216 102.341 37.6143 102.58 37.8595V37.1152C102.58 36.5141 102.052 36.1202 101.252 36.1202C100.925 36.1255 100.604 36.1902 100.305 36.3105C100.007 36.4308 99.7375 36.6044 99.5129 36.821L98.8877 35.7263C99.6037 35.1104 100.554 34.7761 101.536 34.7952C102.932 34.7952 104.187 35.3349 104.187 37.041V40.8777L102.58 40.8726ZM102.58 39.4479V38.7112C102.427 38.5374 102.232 38.3988 102.01 38.3069C101.788 38.2149 101.545 38.172 101.302 38.1818C100.677 38.1818 100.163 38.5143 100.163 39.0796C100.163 39.6448 100.677 39.962 101.302 39.962C101.545 39.9728 101.787 39.9309 102.009 39.8398C102.231 39.7487 102.427 39.6109 102.58 39.4377V39.4479Z" fill="#1F8F45"/>
<path d="M106.068 39.3865V36.3172H105.069V34.9411H106.068V33.3194H107.659V34.9411H108.884V36.3044H107.659V38.9696C107.659 39.3507 107.857 39.6321 108.217 39.6321C108.319 39.6367 108.421 39.6228 108.517 39.5912C108.612 39.5596 108.7 39.5109 108.775 39.4479L109.113 40.6399C108.74 40.9164 108.266 41.0518 107.788 41.0184C106.657 41.0184 106.068 40.4608 106.068 39.3865Z" fill="#1F8F45"/>
<path d="M109.822 33.3705C109.815 33.2529 109.834 33.1351 109.879 33.0245C109.923 32.9139 109.992 32.8128 110.08 32.7272C110.168 32.6417 110.275 32.5735 110.393 32.5269C110.511 32.4804 110.638 32.4564 110.767 32.4564C110.895 32.4564 111.023 32.4804 111.141 32.5269C111.259 32.5735 111.365 32.6417 111.454 32.7272C111.542 32.8128 111.611 32.9139 111.655 33.0245C111.699 33.1351 111.719 33.2529 111.712 33.3705C111.719 33.4882 111.699 33.6059 111.655 33.7165C111.611 33.8271 111.542 33.9283 111.454 34.0139C111.365 34.0994 111.259 34.1676 111.141 34.2141C111.023 34.2607 110.895 34.2847 110.767 34.2847C110.638 34.2847 110.511 34.2607 110.393 34.2141C110.275 34.1676 110.168 34.0994 110.08 34.0139C109.992 33.9283 109.923 33.8271 109.879 33.7165C109.834 33.6059 109.815 33.4882 109.822 33.3705ZM109.973 40.8726V34.941H111.561V40.8726H109.973Z" fill="#1F8F45"/>
<path d="M112.749 37.9029C112.749 36.2199 113.952 34.7977 115.939 34.7977C117.926 34.7977 119.143 36.2173 119.143 37.9029C119.143 39.5885 117.943 41.0209 115.939 41.0209C113.935 41.0209 112.749 39.5834 112.749 37.9029ZM117.494 37.9029C117.494 36.9821 116.936 36.1841 115.942 36.1841C114.949 36.1841 114.402 36.9796 114.402 37.9029C114.402 38.8263 114.96 39.6346 115.939 39.6346C116.919 39.6346 117.491 38.834 117.491 37.9029H117.494Z" fill="#1F8F45"/>
<path d="M124.421 40.8726V37.2916C124.421 36.468 123.985 36.1866 123.304 36.1866C123.028 36.192 122.758 36.2576 122.515 36.3782C122.272 36.4988 122.065 36.6707 121.909 36.8798V40.8726H120.321V34.941H121.909V35.7083C122.167 35.4239 122.491 35.1951 122.856 35.0381C123.222 34.8812 123.621 34.8 124.024 34.8003C125.364 34.8003 126 35.5369 126 36.6905V40.8726H124.421Z" fill="#1F8F45"/>
</svg>
