<svg width="24" height="24" viewBox="0 0 24 24" fill="none" xmlns="http://www.w3.org/2000/svg">
<path d="M18.7065 14.0272C17.352 14.0272 16.2501 15.1292 16.2501 16.4836C16.2501 17.8381 17.3521 18.94 18.7065 18.94C20.061 18.94 21.1629 17.8381 21.1629 16.4836C21.1629 15.1292 20.061 14.0272 18.7065 14.0272Z" fill="#3E965C"/>
<path d="M18.7065 20.3462C18.1456 20.3462 17.6129 20.2251 17.1315 20.0092V22.0718L18.7065 21.5586L20.2814 22.0718V20.0092C19.8001 20.2251 19.2673 20.3462 18.7065 20.3462Z" fill="#3E965C"/>
<path d="M0 1.92816V20.1313H15.7253V18.937C15.1748 18.2694 14.8439 17.4144 14.8439 16.4836C14.8439 14.3537 16.5766 12.621 18.7065 12.621C20.8364 12.621 22.5691 14.3537 22.5691 16.4836C22.5691 17.4144 22.2381 18.2694 21.6877 18.937V20.1313H24V1.92816H0ZM12 13.6197H3.25012V12.2134H12V13.6197ZM20.7499 9.93802H3.25012V8.53177H20.7499V9.93802ZM20.7499 6.25636H3.25012V4.85011H20.7499V6.25636Z" fill="#3E965C"/>
</svg>
