<svg width="24" height="24" viewBox="0 0 24 24" fill="none" xmlns="http://www.w3.org/2000/svg">
<path d="M9.89062 15.2243H3.51562V16.6306H11.2969C11.2969 15.8553 10.6661 15.2243 9.89062 15.2243Z" fill="#3E965C"/>
<path d="M9.89062 12.4118H3.51562V13.8181H9.89062C10.4028 13.8181 10.8829 13.9563 11.2969 14.1964V13.8181C11.2969 13.0428 10.6661 12.4118 9.89062 12.4118Z" fill="#3E965C"/>
<path d="M14.1094 12.4118C13.3339 12.4118 12.7031 13.0428 12.7031 13.8181V14.1964C13.1171 13.9563 13.5972 13.8181 14.1094 13.8181H20.4844V12.4118H14.1094Z" fill="#3E965C"/>
<path d="M14.1094 15.2243C13.3339 15.2243 12.7031 15.8553 12.7031 16.6306H20.4844V15.2243H14.1094Z" fill="#3E965C"/>
<path d="M21.8906 3.27118V18.0368H2.10938V3.27118H0V24L3.85382 20.1462H24V3.27118H21.8906Z" fill="#3E965C"/>
<path d="M12.7031 11.3839C13.1171 11.1438 13.5972 11.0056 14.1094 11.0056H20.4844V0H14.1094C13.3339 0 12.7031 0.630798 12.7031 1.40625V11.3839Z" fill="#3E965C"/>
<path d="M3.51562 11.0056H9.89062C10.4028 11.0056 10.8829 11.1438 11.2969 11.3839V1.40625C11.2969 0.630798 10.6661 0 9.89062 0H3.51562V11.0056Z" fill="#3E965C"/>
</svg>
