<svg width="31" height="31" viewBox="0 0 31 31" fill="none" xmlns="http://www.w3.org/2000/svg">
<path fill-rule="evenodd" clip-rule="evenodd" d="M30.4471 15.3501C30.4471 6.94235 23.6313 0.126526 15.2236 0.126526C6.81582 0.126526 -5.72205e-06 6.94235 -5.72205e-06 15.3501C-5.72205e-06 23.7579 6.81582 30.5737 15.2236 30.5737C23.6313 30.5737 30.4471 23.7579 30.4471 15.3501ZM14.4574 6.96511C13.7968 7.62569 13.7968 8.69669 14.4574 9.35727L19.1816 14.0815H8.04168C7.10748 14.0815 6.35017 14.8388 6.35017 15.773C6.35017 16.7072 7.10748 17.4645 8.04168 17.4645H19.1816L14.4574 22.1887C13.7968 22.8493 13.7968 23.9203 14.4574 24.5808C15.118 25.2414 16.189 25.2414 16.8495 24.5808L24.4613 16.9691C25.1219 16.3085 25.1219 15.2375 24.4613 14.5769L16.8495 6.96511C16.189 6.30454 15.118 6.30454 14.4574 6.96511Z" fill="white"/>
</svg>
