<svg width="24" height="24" viewBox="0 0 24 24" fill="none" xmlns="http://www.w3.org/2000/svg">
<path d="M21.855 12L23.8417 9.44999C23.913 9.3585 23.962 9.25175 23.985 9.13811C24.0081 9.02447 24.0044 8.90704 23.9744 8.79505C23.9444 8.68305 23.8888 8.57954 23.8121 8.49264C23.7353 8.40575 23.6394 8.33783 23.532 8.29424L20.532 7.07549L20.973 3.87149C20.9888 3.75678 20.9778 3.63998 20.9409 3.53024C20.904 3.42049 20.8422 3.32078 20.7603 3.2389C20.6784 3.15703 20.5787 3.09523 20.469 3.05833C20.3592 3.02144 20.2424 3.01045 20.1277 3.02624L16.923 3.46724L15.708 0.467987C15.6645 0.360181 15.5965 0.263965 15.5094 0.186935C15.4224 0.109905 15.3186 0.0541692 15.2063 0.0241292C15.094 -0.00591073 14.9762 -0.00943274 14.8623 0.0138413C14.7484 0.0371153 14.6415 0.0865481 14.55 0.158237L12 2.14499L9.44999 0.158237C9.3585 0.0870004 9.25175 0.037945 9.13811 0.014924C9.02447 -0.00809711 8.90704 -0.00445686 8.79505 0.0255587C8.68305 0.0555743 8.57954 0.111148 8.49264 0.187914C8.40575 0.26468 8.33783 0.360548 8.29424 0.467987L7.07249 3.46424L3.86849 3.02324C3.75378 3.00745 3.63698 3.01844 3.52724 3.05533C3.41749 3.09223 3.31778 3.15403 3.2359 3.2359C3.15403 3.31778 3.09223 3.41749 3.05533 3.52724C3.01844 3.63698 3.00745 3.75378 3.02324 3.86849L3.46424 7.07324L0.467987 8.29199C0.360181 8.33549 0.263965 8.40346 0.186935 8.49053C0.109905 8.5776 0.0541692 8.68138 0.0241292 8.79369C-0.00591073 8.90599 -0.00943274 9.02374 0.0138413 9.13764C0.0371153 9.25154 0.0865481 9.35847 0.158237 9.44999L2.14499 12L0.158237 14.55C0.0870004 14.6415 0.037945 14.7482 0.014924 14.8619C-0.00809711 14.9755 -0.00445686 15.0929 0.0255587 15.2049C0.0555743 15.3169 0.111148 15.4204 0.187914 15.5073C0.26468 15.5942 0.360548 15.6621 0.467987 15.7057L3.46424 16.9275L3.02324 20.1315C3.00745 20.2462 3.01844 20.363 3.05533 20.4727C3.09223 20.5825 3.15403 20.6822 3.2359 20.7641C3.31778 20.8459 3.41749 20.9077 3.52724 20.9446C3.63698 20.9815 3.75378 20.9925 3.86849 20.9767L7.07324 20.5357L8.29199 23.5357C8.33561 23.6431 8.40351 23.7388 8.49035 23.8155C8.57718 23.8922 8.6806 23.9477 8.7925 23.9777C8.90439 24.0077 9.02171 24.0114 9.13527 23.9884C9.24882 23.9655 9.35551 23.9166 9.44699 23.8455L12 21.855L14.55 23.8417C14.6818 23.9444 14.8442 24.0001 15.0112 24C15.0766 24 15.1416 23.9915 15.2047 23.9745C15.3168 23.9445 15.4203 23.8889 15.5073 23.8121C15.5942 23.7354 15.6621 23.6395 15.7057 23.532L16.9245 20.532L20.1285 20.973C20.2432 20.9888 20.36 20.9778 20.4697 20.9409C20.5795 20.904 20.6792 20.8422 20.7611 20.7603C20.8429 20.6784 20.9047 20.5787 20.9416 20.469C20.9785 20.3592 20.9895 20.2424 20.9737 20.1277L20.5327 16.923L23.5327 15.7042C23.6401 15.6606 23.7358 15.5927 23.8125 15.5059C23.8892 15.419 23.9447 15.3156 23.9747 15.2037C24.0047 15.0918 24.0084 14.9745 23.9854 14.861C23.9625 14.7474 23.9136 14.6407 23.8425 14.5492L21.855 12ZM17.0302 9.53024L11.0302 15.5302C10.8896 15.6708 10.6989 15.7498 10.5 15.7498C10.3011 15.7498 10.1104 15.6708 9.96974 15.5302L6.96974 12.5302C6.83312 12.3888 6.75752 12.1993 6.75923 12.0027C6.76094 11.806 6.83982 11.6179 6.97887 11.4789C7.11793 11.3398 7.30604 11.2609 7.50269 11.2592C7.69933 11.2575 7.88878 11.3331 8.03024 11.4697L10.5 13.9395L15.9697 8.46974C16.1112 8.33312 16.3006 8.25752 16.4973 8.25923C16.6939 8.26094 16.882 8.33982 17.0211 8.47887C17.1602 8.61793 17.239 8.80604 17.2407 9.00269C17.2425 9.19933 17.1669 9.38879 17.0302 9.53024Z" fill="#048F46"/>
</svg>
