<svg width="589" height="517" viewBox="0 0 589 517" fill="none" xmlns="http://www.w3.org/2000/svg">
<path d="M295.325 295.325L148.192 148.31L148.192 295.325L222.524 368.832L295.325 295.325Z" fill="#42BD88"/>
<path d="M589 -1.52588e-05L441.279 147.721L514.079 221.228L589 221.582V-1.52588e-05Z" fill="#DCE4F0"/>
<path d="M331.96 221.464L368.714 184.828V295.325H295.325V184.828L331.96 221.464Z" fill="#DCE4F0"/>
<path d="M1.52588e-05 368.95L1.52588e-05 516.2H148.428L1.52588e-05 368.95Z" fill="#42BD88"/>
<path d="M295.325 295.325L221.817 368.832H368.714V295.325H295.325Z" fill="#048F46"/>
<path d="M442.103 221.7C442.103 262.341 409.237 295.325 368.714 295.325V148.075C409.237 148.075 442.103 181.059 442.103 221.7Z" fill="#42BD88"/>
<path d="M405.468 221.7C405.468 242.079 388.976 258.453 368.714 258.453V184.828C388.976 184.946 405.468 201.32 405.468 221.7Z" fill="#DCE4F0"/>
<path d="M148.428 295.325C128.166 295.325 111.674 278.833 111.674 258.571C131.936 258.453 148.428 274.945 148.428 295.325Z" fill="#42BD88"/>
<path d="M75.0386 295.325C75.0386 274.945 91.5306 258.571 111.792 258.571C111.674 278.833 95.3002 295.325 75.0386 295.325Z" fill="#42BD88"/>
<path d="M75.0386 221.7C95.3002 221.7 111.792 238.192 111.792 258.453C91.4128 258.453 75.0386 242.079 75.0386 221.7Z" fill="#42BD88"/>
<path d="M148.428 221.7C148.428 242.079 131.936 258.453 111.674 258.453C111.674 238.192 128.166 221.7 148.428 221.7Z" fill="#42BD88"/>
<path d="M331.96 258.453L368.714 221.7V258.453L331.96 295.089L295.325 258.453V221.7L331.96 258.453Z" fill="#42BD88"/>
<path d="M331.96 184.828L368.714 148.075V184.828L331.96 221.464L295.325 184.828V148.075L331.96 184.828Z" fill="#42BD88"/>
<path d="M111.674 221.7C91.4128 221.7 74.9208 205.208 74.9208 184.828H148.428C148.428 205.208 131.936 221.7 111.674 221.7Z" fill="#048F46"/>
<path d="M111.674 184.946C91.4128 184.946 74.9208 168.454 74.9208 148.075H148.428C148.428 168.454 131.936 184.946 111.674 184.946Z" fill="#048F46"/>
<path d="M589 203.323V221.699H570.623V203.323H589Z" fill="#048F46"/>
<path d="M570.623 184.946V203.323H552.246V184.946H570.623Z" fill="#048F46"/>
<path d="M589 166.57V184.946H570.623V166.57H589Z" fill="#048F46"/>
<path d="M570.623 148.075V166.452H552.246V148.075H570.623Z" fill="#048F46"/>
<path d="M552.246 203.323V221.7H533.87V203.323H552.246Z" fill="#048F46"/>
<path d="M533.87 184.946V203.323H515.493V184.946H533.87Z" fill="#048F46"/>
<path d="M552.246 166.57V184.946H533.87V166.57H552.246Z" fill="#048F46"/>
<path d="M533.87 148.075V166.452H515.493V148.075H533.87Z" fill="#048F46"/>
<path d="M52.421 487.221C48.0624 487.221 44.5284 490.755 44.5284 495.114C44.5284 499.472 48.0624 503.006 52.421 503.006C56.7796 503.006 60.3136 499.472 60.3136 495.114C60.3136 490.755 56.7796 487.221 52.421 487.221Z" fill="#DCE4F0"/>
<path d="M28.9788 495.114C28.9788 490.755 25.4448 487.221 21.0862 487.221C16.7276 487.221 13.1936 490.755 13.1936 495.114C13.1936 499.472 16.7276 503.006 21.0862 503.006C25.4448 503.006 28.9788 499.472 28.9788 495.114Z" fill="#DCE4F0"/>
<path d="M21.0862 471.553C25.4448 471.553 28.9788 468.019 28.9788 463.661C28.9788 459.302 25.4448 455.768 21.0862 455.768C16.7276 455.768 13.1936 459.302 13.1936 463.661C13.1936 468.019 16.7276 471.553 21.0862 471.553Z" fill="#DCE4F0"/>
<path d="M44.4106 463.661C44.4106 468.019 47.9446 471.553 52.3032 471.553C56.6618 471.553 60.1958 468.019 60.1958 463.661C60.1958 459.302 56.6618 455.768 52.3032 455.768C47.9446 455.768 44.4106 459.302 44.4106 463.661Z" fill="#DCE4F0"/>
<path d="M515.611 368.95L589 295.325V368.95H515.611Z" fill="#DCE4F0"/>
<path d="M221.817 505.716V516.2H74.9208V505.716H221.817Z" fill="#048F46"/>
<path d="M221.817 484.63V495.114H74.9208V484.63H221.817Z" fill="#048F46"/>
<path d="M221.817 442.575V453.059H74.9208V442.575H221.817Z" fill="#048F46"/>
<path d="M221.817 463.661V474.145H74.9208V463.661H221.817Z" fill="#048F46"/>
<path d="M75.0386 221.7L75.0386 368.596H64.3188L64.3188 221.7H75.0386Z" fill="#048F46"/>
<path d="M53.599 221.7L53.599 368.596H42.8792L42.8792 221.7H53.599Z" fill="#048F46"/>
<path d="M10.7198 221.7L10.7198 368.596H1.04904e-05L1.04904e-05 221.7H10.7198Z" fill="#048F46"/>
<path d="M32.1594 221.7L32.1594 368.596H21.4396L21.4396 221.7H32.1594Z" fill="#048F46"/>
<path d="M302.039 442.575L295.325 449.407V442.575H302.039Z" fill="#42BD88"/>
<path d="M295.325 479.093V464.25L316.882 442.575H331.725L295.325 479.093Z" fill="#42BD88"/>
<path d="M295.325 508.896V494.053L346.568 442.575H361.41L295.325 508.896Z" fill="#42BD88"/>
<path d="M361.999 516.2L368.714 509.367V516.2H361.999Z" fill="#42BD88"/>
<path d="M317.707 516.2H302.864L368.714 450.114V464.957L317.707 516.2Z" fill="#42BD88"/>
<path d="M347.157 516.2H332.314L368.714 479.682V494.642L347.157 516.2Z" fill="#42BD88"/>
<path d="M161.975 148.075L148.428 161.622V148.075H161.975Z" fill="#048F46"/>
<path d="M148.428 221.229V191.425L191.661 148.075H221.346L148.428 221.229Z" fill="#048F46"/>
<path d="M148.428 280.718V250.914L251.032 148.075H280.6L148.428 280.718Z" fill="#048F46"/>
<path d="M281.66 295.325L295.325 281.778V295.325H281.66Z" fill="#048F46"/>
<path d="M193.192 295.325H163.506L295.325 163.153V192.957L193.192 295.325Z" fill="#048F46"/>
<path d="M252.21 295.325H222.524L295.325 222.407V252.092L252.21 295.325Z" fill="#048F46"/>
<path d="M148.428 442.575C148.428 401.934 181.294 368.95 221.817 368.95C221.817 409.591 188.951 442.575 148.428 442.575Z" fill="#42BD88"/>
<path d="M295.325 295.325C295.325 335.966 262.458 368.95 221.935 368.95C221.817 328.309 254.684 295.325 295.325 295.325Z" fill="#42BD88"/>
<path d="M295.325 442.575C254.801 442.575 221.935 409.591 221.935 368.95C262.341 368.95 295.325 401.934 295.325 442.575Z" fill="#048F46"/>
<path d="M148.428 295.325C188.951 295.325 221.817 328.309 221.817 368.95C181.294 368.95 148.428 335.966 148.428 295.325Z" fill="#048F46"/>
<path d="M148.428 295.325C107.905 295.325 75.0386 328.309 75.0386 368.95H148.428V295.325Z" fill="#048F46"/>
<path d="M75.0386 148.075C33.573 148.075 2.28882e-05 181.059 2.28882e-05 221.7H75.0386L75.0386 148.075Z" fill="#42BD88"/>
<path d="M148.428 442.575C107.905 442.575 75.0386 409.591 75.0386 368.95H148.428V442.575Z" fill="#42BD88"/>
<path d="M589 369.068C507.954 369.068 442.221 434.918 442.221 516.2H589V369.068Z" fill="#048F46"/>
<path d="M589 442.575C548.477 442.575 515.611 475.559 515.611 516.2H589V442.575Z" fill="#DCE4F0"/>
<path d="M442.103 442.575V516.2H368.714V442.575H442.103Z" fill="#DCE4F0"/>
<path d="M423.962 460.834V497.941H386.973V460.834H423.962Z" fill="#DCE4F0"/>
<path d="M515.611 148.075V221.7H442.221V148.075H515.611Z" fill="#42BD88"/>
<path d="M497.352 166.334V203.441H460.362V166.334H497.352Z" fill="#DCE4F0"/>
<path d="M295.325 442.575V516.2H221.935V442.575H295.325Z" fill="#DCE4F0"/>
<path d="M284.487 502.535C284.487 504.066 283.191 505.362 281.66 505.362C280.128 505.362 278.833 504.066 278.833 502.535C278.833 501.003 280.128 499.708 281.66 499.708C283.191 499.708 284.487 501.003 284.487 502.535Z" fill="#048F46"/>
<path d="M284.487 490.991C284.487 492.522 283.191 493.818 281.66 493.818C280.128 493.818 278.833 492.522 278.833 490.991C278.833 489.459 280.128 488.163 281.66 488.163C283.191 488.046 284.487 489.341 284.487 490.991Z" fill="#048F46"/>
<path d="M284.487 479.329C284.487 480.86 283.191 482.156 281.66 482.156C280.128 482.156 278.833 480.86 278.833 479.329C278.833 477.797 280.128 476.501 281.66 476.501C283.191 476.501 284.487 477.797 284.487 479.329Z" fill="#048F46"/>
<path d="M284.487 467.784C284.487 469.316 283.191 470.611 281.66 470.611C280.128 470.611 278.833 469.316 278.833 467.784C278.833 466.253 280.128 464.957 281.66 464.957C283.191 464.957 284.487 466.253 284.487 467.784Z" fill="#048F46"/>
<path d="M278.833 456.24C278.833 454.708 280.128 453.412 281.66 453.412C283.191 453.412 284.487 454.708 284.487 456.24C284.487 457.771 283.191 459.067 281.66 459.067C280.128 459.067 278.833 457.771 278.833 456.24Z" fill="#048F46"/>
<path d="M272.943 502.535C272.943 504.067 271.647 505.362 270.115 505.362C268.584 505.362 267.288 504.067 267.288 502.535C267.288 501.004 268.584 499.708 270.115 499.708C271.647 499.708 272.943 501.004 272.943 502.535Z" fill="#048F46"/>
<path d="M272.943 490.991C272.943 492.522 271.647 493.818 270.115 493.818C268.584 493.818 267.288 492.522 267.288 490.991C267.288 489.459 268.584 488.163 270.115 488.163C271.647 488.046 272.943 489.341 272.943 490.991Z" fill="#048F46"/>
<path d="M272.943 479.329C272.943 480.86 271.647 482.156 270.115 482.156C268.584 482.156 267.288 480.86 267.288 479.329C267.288 477.797 268.584 476.501 270.115 476.501C271.647 476.501 272.943 477.797 272.943 479.329Z" fill="#048F46"/>
<path d="M272.943 467.784C272.943 469.316 271.647 470.611 270.115 470.611C268.584 470.611 267.288 469.316 267.288 467.784C267.288 466.253 268.584 464.957 270.115 464.957C271.647 464.957 272.943 466.253 272.943 467.784Z" fill="#048F46"/>
<path d="M272.943 456.24C272.943 457.771 271.647 459.067 270.115 459.067C268.584 459.067 267.288 457.771 267.288 456.24C267.288 454.708 268.584 453.412 270.115 453.412C271.647 453.295 272.943 454.59 272.943 456.24Z" fill="#048F46"/>
<path d="M261.398 502.535C261.398 504.067 260.102 505.362 258.571 505.362C257.04 505.362 255.744 504.067 255.744 502.535C255.744 501.004 257.04 499.708 258.571 499.708C260.102 499.708 261.398 501.004 261.398 502.535Z" fill="#048F46"/>
<path d="M261.398 490.991C261.398 492.522 260.102 493.818 258.571 493.818C257.04 493.818 255.744 492.522 255.744 490.991C255.744 489.459 257.04 488.163 258.571 488.163C260.102 488.163 261.398 489.341 261.398 490.991Z" fill="#048F46"/>
<path d="M261.398 479.329C261.398 480.86 260.102 482.156 258.571 482.156C257.04 482.156 255.744 480.86 255.744 479.329C255.744 477.797 257.04 476.501 258.571 476.501C260.102 476.501 261.398 477.797 261.398 479.329Z" fill="#048F46"/>
<path d="M261.398 467.784C261.398 469.316 260.102 470.611 258.571 470.611C257.04 470.611 255.744 469.316 255.744 467.784C255.744 466.253 257.04 464.957 258.571 464.957C260.102 464.957 261.398 466.253 261.398 467.784Z" fill="#048F46"/>
<path d="M261.398 456.24C261.398 457.771 260.102 459.067 258.571 459.067C257.04 459.067 255.744 457.771 255.744 456.24C255.744 454.708 257.04 453.412 258.571 453.412C260.102 453.412 261.398 454.59 261.398 456.24Z" fill="#048F46"/>
<path d="M249.854 502.535C249.854 504.067 248.558 505.362 247.027 505.362C245.495 505.362 244.199 504.067 244.199 502.535C244.199 501.004 245.495 499.708 247.027 499.708C248.558 499.708 249.854 501.004 249.854 502.535Z" fill="#048F46"/>
<path d="M249.854 490.991C249.854 492.522 248.558 493.818 247.027 493.818C245.495 493.818 244.199 492.522 244.199 490.991C244.199 489.459 245.495 488.163 247.027 488.163C248.558 488.163 249.854 489.341 249.854 490.991Z" fill="#048F46"/>
<path d="M249.854 479.329C249.854 480.86 248.558 482.156 247.027 482.156C245.495 482.156 244.199 480.86 244.199 479.329C244.199 477.797 245.495 476.501 247.027 476.501C248.558 476.501 249.854 477.797 249.854 479.329Z" fill="#048F46"/>
<path d="M249.854 467.784C249.854 469.316 248.558 470.611 247.027 470.611C245.495 470.611 244.199 469.316 244.199 467.784C244.199 466.253 245.495 464.957 247.027 464.957C248.558 464.957 249.854 466.253 249.854 467.784Z" fill="#048F46"/>
<path d="M249.854 456.24C249.854 457.771 248.558 459.067 247.027 459.067C245.495 459.067 244.199 457.771 244.199 456.24C244.199 454.708 245.495 453.412 247.027 453.412C248.558 453.412 249.854 454.59 249.854 456.24Z" fill="#048F46"/>
<path d="M238.309 502.535C238.309 504.067 237.014 505.362 235.482 505.362C233.951 505.362 232.655 504.067 232.655 502.535C232.655 501.004 233.951 499.708 235.482 499.708C237.014 499.708 238.309 501.004 238.309 502.535Z" fill="#048F46"/>
<path d="M238.309 490.991C238.309 492.522 237.014 493.818 235.482 493.818C233.951 493.818 232.655 492.522 232.655 490.991C232.655 489.459 233.951 488.163 235.482 488.163C237.014 488.046 238.309 489.341 238.309 490.991Z" fill="#048F46"/>
<path d="M238.309 479.329C238.309 480.86 237.014 482.156 235.482 482.156C233.951 482.156 232.655 480.86 232.655 479.329C232.655 477.797 233.951 476.501 235.482 476.501C237.014 476.501 238.309 477.797 238.309 479.329Z" fill="#048F46"/>
<path d="M238.309 467.784C238.309 469.316 237.014 470.611 235.482 470.611C233.951 470.611 232.655 469.316 232.655 467.784C232.655 466.253 233.951 464.957 235.482 464.957C237.014 464.957 238.309 466.253 238.309 467.784Z" fill="#048F46"/>
<path d="M238.309 456.24C238.309 457.771 237.014 459.067 235.482 459.067C233.951 459.067 232.655 457.771 232.655 456.24C232.655 454.708 233.951 453.412 235.482 453.412C237.014 453.295 238.309 454.59 238.309 456.24Z" fill="#048F46"/>
<path d="M442.103 442.221L441.75 442.575H368.714V368.832L442.103 295.325V442.221Z" fill="#42BD88"/>
<path d="M405.468 368.95C385.206 368.95 368.832 385.442 368.832 405.703C368.832 426.083 385.206 442.457 405.468 442.457C425.729 442.457 442.221 425.965 442.221 405.703C442.103 385.442 425.729 368.95 405.468 368.95Z" fill="#048F46"/>
<path d="M405.468 387.326C395.337 387.326 387.091 395.572 387.091 405.703C387.091 415.834 395.337 424.08 405.468 424.08C415.598 424.08 423.844 415.834 423.844 405.703C423.844 395.572 415.598 387.326 405.468 387.326Z" fill="#DCE4F0"/>
<path d="M331.96 368.95C311.699 368.95 295.325 385.442 295.325 405.703C295.325 426.083 311.699 442.457 331.96 442.457C352.222 442.457 368.714 425.965 368.714 405.703C368.714 385.442 352.222 368.95 331.96 368.95Z" fill="#42BD88"/>
<path d="M331.96 387.326C321.83 387.326 313.584 395.572 313.584 405.703C313.584 415.834 321.83 424.08 331.96 424.08C342.091 424.08 350.337 415.834 350.337 405.703C350.337 395.572 342.091 387.326 331.96 387.326Z" fill="#DCE4F0"/>
<path d="M442.103 295.325H589L515.375 368.95L442.103 295.796V295.325Z" fill="#048F46"/>
<path d="M552.6 295.325L515.375 332.667L478.032 295.325H552.6Z" fill="#048F46"/>
<path d="M515.375 295.442V221.817L589 295.442H515.375Z" fill="#42BD88"/>
<path d="M442.103 295.443V294.971L515.375 221.818V295.443H442.103Z" fill="#DCE4F0"/>
<path d="M552.6 295.443L515.375 258.218L478.032 295.443H552.6Z" fill="#42BD88"/>
<path d="M442.103 295.796L515.375 368.95L442.103 442.221V295.796Z" fill="#42BD88"/>
<path d="M405.114 358.466V368.95H331.725V358.466H405.114Z" fill="#048F46"/>
<path d="M405.114 337.38V347.864H331.725V337.38H405.114Z" fill="#048F46"/>
<path d="M405.114 295.325V305.809H331.725V295.325H405.114Z" fill="#048F46"/>
<path d="M405.114 316.411V326.895H331.725V316.411H405.114Z" fill="#048F46"/>
<path d="M148.428 405.703C128.049 405.703 111.674 389.211 111.674 368.95C111.674 348.57 128.166 332.196 148.428 332.196V405.703Z" fill="#DCE4F0"/>
<path d="M130.994 368.95C130.994 359.321 138.799 351.515 148.428 351.515C158.057 351.515 165.862 359.321 165.862 368.95C165.862 378.579 158.057 386.384 148.428 386.384C138.799 386.384 130.994 378.579 130.994 368.95Z" fill="#048F46"/>
</svg>
