<svg width="37" height="40" viewBox="0 0 37 40" fill="none" xmlns="http://www.w3.org/2000/svg">
<path d="M35.6531 25.2796C35.6531 27.7297 33.9283 30.7285 31.8115 31.9437L22.2661 37.4515C20.1492 38.6667 16.6799 38.6667 14.5631 37.4515L5.0177 31.9437C2.90086 30.7285 1.17603 27.7297 1.17603 25.2796V14.2642C1.17603 11.8141 2.90086 8.81527 5.0177 7.60004L14.5631 2.09233C16.6799 0.877102 20.1492 0.877102 22.2661 2.09233L31.8115 7.60004C33.9283 8.81527 35.6531 11.8141 35.6531 14.2642V25.2796Z" fill="#EAF3EA"/>
<path d="M18.4048 39.5487C16.8171 39.5487 15.2099 39.1959 13.9751 38.4707L4.42969 32.963C1.94044 31.5322 0 28.1413 0 25.2796V14.2642C0 11.3829 1.94044 8.01167 4.42969 6.58084L13.9751 1.07312C16.4643 -0.357707 20.3648 -0.357707 22.8541 1.07312L32.3995 6.58084C34.8887 8.01167 36.8292 11.4025 36.8292 14.2642V25.2796C36.8292 28.1609 34.8887 31.5322 32.3995 32.963L22.8541 38.4707C21.5996 39.1763 20.012 39.5487 18.4048 39.5487ZM18.4048 2.32755C17.2092 2.32755 16.0331 2.58235 15.1511 3.09196L5.60572 8.59968C3.84168 9.6189 2.35205 12.2062 2.35205 14.2446V25.26C2.35205 27.2985 3.84168 29.8857 5.60572 30.9049L15.1511 36.4126C16.9152 37.4319 19.914 37.4319 21.678 36.4126L31.2234 30.9049C32.9875 29.8857 34.4771 27.2985 34.4771 25.26V14.2446C34.4771 12.2062 32.9875 9.6189 31.2234 8.59968L21.678 3.09196C20.796 2.58235 19.6004 2.32755 18.4048 2.32755Z" fill="#048F46"/>
<path d="M8.17334 21.6732L10.8586 27.8865L15.4647 11.6182H23.05" fill="#EAF3EA"/>
<path d="M10.8586 29.0626C10.3882 29.0626 9.95698 28.7882 9.78058 28.357L7.09533 22.1436C6.84052 21.5556 7.11493 20.85 7.70294 20.5952C8.29095 20.3404 8.99657 20.6148 9.25137 21.2028L10.6234 24.3781L14.3279 11.285C14.4651 10.7754 14.9355 10.4226 15.4647 10.4226H23.0501C23.6969 10.4226 24.2261 10.9518 24.2261 11.5986C24.2261 12.2454 23.6969 12.7747 23.0501 12.7747H16.3467L11.9954 28.1806C11.8582 28.651 11.4466 29.0038 10.937 29.043C10.9174 29.0626 10.8782 29.0626 10.8586 29.0626Z" fill="#048F46"/>
<path d="M28.6558 29.0821L17.5424 29.0625C16.8955 29.0625 16.3663 28.5333 16.3663 27.8865C16.3663 27.2397 16.8955 26.7104 17.5424 26.7104L28.6558 26.7301C29.3026 26.7301 29.8318 27.2593 29.8318 27.9061C29.8318 28.5529 29.3026 29.0821 28.6558 29.0821Z" fill="#048F46"/>
<path d="M25.8529 20.9481L17.5228 20.9285C16.876 20.9285 16.3467 20.3993 16.3467 19.7524C16.3467 19.1056 16.876 18.5764 17.5228 18.5764L25.8529 18.596C26.4997 18.596 27.029 19.1252 27.029 19.772C27.029 20.4189 26.4997 20.9481 25.8529 20.9481Z" fill="#048F46"/>
</svg>
