<svg width="212" height="40" viewBox="0 0 212 40" fill="none" xmlns="http://www.w3.org/2000/svg">
<path d="M45.1783 16.2556H48.1433L51.5292 25.6446L54.8968 16.2556H57.8617L53.1581 28.4631H49.9003L45.1783 16.2556ZM57.2765 24.034C57.2765 23.1799 57.4717 22.4051 57.8621 21.7096C58.2526 21.002 58.7956 20.4407 59.491 20.0258C60.1865 19.611 60.9735 19.4036 61.852 19.4036C62.7183 19.4036 63.487 19.611 64.1581 20.0258C64.8292 20.4285 65.3477 21.002 65.7138 21.7462C66.092 22.4783 66.2811 23.3202 66.2811 24.2719V24.7844H59.7107C59.7839 25.3701 60.0462 25.8581 60.4977 26.2486C60.9491 26.639 61.5348 26.8342 62.2547 26.8342C62.6817 26.8342 63.1088 26.7549 63.5358 26.5963C63.9751 26.4377 64.335 26.2242 64.6156 25.9557L65.6406 27.4565C65.2013 27.8592 64.6583 28.1642 64.0117 28.3716C63.3772 28.579 62.7061 28.6828 61.9984 28.6828C61.1077 28.6828 60.3024 28.4936 59.5825 28.1154C58.8627 27.7249 58.2953 27.182 57.8804 26.4865C57.4778 25.7788 57.2765 24.9613 57.2765 24.034ZM61.852 21.2521C61.1931 21.2521 60.6807 21.4534 60.3146 21.8561C59.9486 22.2465 59.7351 22.698 59.6741 23.2104H64.03C63.9934 22.7102 63.792 22.2587 63.426 21.8561C63.0722 21.4534 62.5475 21.2521 61.852 21.2521ZM67.9601 19.6232H70.2844V20.8311C70.6017 20.4285 71.0165 20.0929 71.529 19.8245C72.0415 19.5561 72.5661 19.4219 73.103 19.4219V21.6913C72.9444 21.6547 72.7308 21.6364 72.4624 21.6364C72.072 21.6364 71.6571 21.734 71.2179 21.9293C70.7786 22.1123 70.4675 22.3441 70.2844 22.6247V28.4631H67.9601V19.6232ZM75.7083 18.3237C75.3301 18.3237 75.0006 18.1895 74.72 17.9211C74.4516 17.6405 74.3174 17.311 74.3174 16.9328C74.3174 16.5545 74.4516 16.2312 74.72 15.9628C75.0006 15.6821 75.3301 15.5418 75.7083 15.5418C76.0988 15.5418 76.4282 15.676 76.6966 15.9445C76.9651 16.2129 77.0993 16.5423 77.0993 16.9328C77.0993 17.311 76.9651 17.6405 76.6966 17.9211C76.4282 18.1895 76.0988 18.3237 75.7083 18.3237ZM74.5553 19.6232H76.8797V28.4631H74.5553V19.6232ZM79.6969 21.6547H78.2327V19.6232H79.6969V19.1473C79.6969 18.1956 79.9714 17.4452 80.5205 16.8962C81.0818 16.3471 81.8017 16.0726 82.6802 16.0726C83.339 16.0726 83.9003 16.1946 84.364 16.4386L83.8881 18.1224C83.6807 17.976 83.4305 17.9028 83.1377 17.9028C82.7961 17.9028 82.5276 18.0126 82.3324 18.2322C82.1372 18.4519 82.0396 18.7569 82.0396 19.1473V19.6232H83.8332V21.6547H82.0396V28.4631H79.6969V21.6547ZM86.3223 18.3237C85.944 18.3237 85.6146 18.1895 85.334 17.9211C85.0655 17.6405 84.9313 17.311 84.9313 16.9328C84.9313 16.5545 85.0655 16.2312 85.334 15.9628C85.6146 15.6821 85.944 15.5418 86.3223 15.5418C86.7127 15.5418 87.0422 15.676 87.3106 15.9445C87.579 16.2129 87.7132 16.5423 87.7132 16.9328C87.7132 17.311 87.579 17.6405 87.3106 17.9211C87.0422 18.1895 86.7127 18.3237 86.3223 18.3237ZM85.1692 19.6232H87.4936V28.4631H85.1692V19.6232ZM95.1088 27.548C94.8037 27.9019 94.4011 28.1825 93.9008 28.3899C93.4128 28.5851 92.882 28.6828 92.3085 28.6828C91.8083 28.6828 91.3202 28.5729 90.8443 28.3533C90.3807 28.1337 89.9963 27.8043 89.6913 27.365C89.3863 26.9136 89.2338 26.3767 89.2338 25.7544C89.2338 25.1077 89.3863 24.577 89.6913 24.1621C89.9963 23.7351 90.3807 23.4239 90.8443 23.2287C91.308 23.0335 91.7961 22.9359 92.3085 22.9359C92.9064 22.9359 93.4494 23.0274 93.9374 23.2104C94.4255 23.3934 94.8159 23.6619 95.1088 24.0157V22.7895C95.1088 22.338 94.9318 21.9781 94.578 21.7096C94.2241 21.4412 93.7544 21.307 93.1687 21.307C92.2048 21.307 91.3446 21.6547 90.5881 22.3502L89.7096 20.7945C90.2343 20.3309 90.826 19.9831 91.4849 19.7513C92.156 19.5195 92.8515 19.4036 93.5714 19.4036C94.7061 19.4036 95.6334 19.6659 96.3533 20.1906C97.0732 20.7152 97.4331 21.5693 97.4331 22.7529V28.4631H95.1088V27.548ZM95.1088 25.242C94.9257 24.9979 94.6634 24.8088 94.3218 24.6746C93.9923 24.5404 93.6324 24.4733 93.2419 24.4733C92.7661 24.4733 92.3695 24.5953 92.0523 24.8393C91.7351 25.0833 91.5764 25.4067 91.5764 25.8093C91.5764 26.212 91.7351 26.5292 92.0523 26.761C92.3695 26.9929 92.7661 27.1088 93.2419 27.1088C93.6324 27.1088 93.9923 27.0417 94.3218 26.9075C94.6634 26.7732 94.9257 26.5841 95.1088 26.3401V25.242ZM99.7386 16.2556H102.063V20.7579C102.405 20.3187 102.813 19.9831 103.289 19.7513C103.765 19.5195 104.265 19.4036 104.79 19.4036C105.547 19.4036 106.218 19.5927 106.803 19.9709C107.401 20.3492 107.865 20.8921 108.194 21.5998C108.536 22.2953 108.707 23.1128 108.707 24.0523C108.707 25.0162 108.536 25.8459 108.194 26.5414C107.865 27.2369 107.401 27.7677 106.803 28.1337C106.205 28.4997 105.534 28.6828 104.79 28.6828C104.265 28.6828 103.765 28.5668 103.289 28.335C102.826 28.1032 102.417 27.7738 102.063 27.3467V28.4631H99.7386V16.2556ZM102.063 25.6263C102.258 25.9069 102.545 26.1449 102.923 26.3401C103.301 26.5231 103.68 26.6146 104.058 26.6146C104.729 26.6146 105.272 26.3828 105.687 25.9191C106.102 25.4433 106.309 24.821 106.309 24.0523C106.309 23.2836 106.102 22.6614 105.687 22.1855C105.272 21.7096 104.729 21.4717 104.058 21.4717C103.68 21.4717 103.301 21.5693 102.923 21.7645C102.545 21.9598 102.258 22.2038 102.063 22.4966V25.6263ZM110.463 16.2556H112.787V28.4631H110.463V16.2556ZM114.524 24.034C114.524 23.1799 114.72 22.4051 115.11 21.7096C115.5 21.002 116.043 20.4407 116.739 20.0258C117.434 19.611 118.221 19.4036 119.1 19.4036C119.966 19.4036 120.735 19.611 121.406 20.0258C122.077 20.4285 122.596 21.002 122.962 21.7462C123.34 22.4783 123.529 23.3202 123.529 24.2719V24.7844H116.959C117.032 25.3701 117.294 25.8581 117.746 26.2486C118.197 26.639 118.783 26.8342 119.503 26.8342C119.93 26.8342 120.357 26.7549 120.784 26.5963C121.223 26.4377 121.583 26.2242 121.864 25.9557L122.888 27.4565C122.449 27.8592 121.906 28.1642 121.26 28.3716C120.625 28.579 119.954 28.6828 119.246 28.6828C118.356 28.6828 117.55 28.4936 116.83 28.1154C116.111 27.7249 115.543 27.182 115.128 26.4865C114.726 25.7788 114.524 24.9613 114.524 24.034ZM119.1 21.2521C118.441 21.2521 117.929 21.4534 117.562 21.8561C117.196 22.2465 116.983 22.698 116.922 23.2104H121.278C121.241 22.7102 121.04 22.2587 120.674 21.8561C120.32 21.4534 119.795 21.2521 119.1 21.2521ZM129.946 16.2556H138.584V18.4885H132.545V21.1423H138.456V23.3751H132.545V26.212H138.584V28.4631H129.946V16.2556ZM146.637 27.3467C146.283 27.7738 145.869 28.1032 145.393 28.335C144.929 28.5668 144.435 28.6828 143.91 28.6828C143.166 28.6828 142.495 28.4997 141.897 28.1337C141.299 27.7677 140.829 27.2369 140.488 26.5414C140.158 25.8459 139.994 25.0162 139.994 24.0523C139.994 23.1128 140.158 22.2953 140.488 21.5998C140.829 20.8921 141.293 20.3492 141.879 19.9709C142.477 19.5927 143.154 19.4036 143.91 19.4036C144.435 19.4036 144.935 19.5195 145.411 19.7513C145.887 19.9831 146.296 20.3187 146.637 20.7579V16.2556H148.98V28.4631H146.637V27.3467ZM146.637 22.4783C146.43 22.1855 146.137 21.9476 145.759 21.7645C145.393 21.5693 145.015 21.4717 144.624 21.4717C143.965 21.4717 143.428 21.7096 143.014 22.1855C142.599 22.6614 142.391 23.2836 142.391 24.0523C142.391 24.8088 142.599 25.425 143.014 25.9008C143.428 26.3767 143.965 26.6146 144.624 26.6146C145.015 26.6146 145.393 26.5231 145.759 26.3401C146.137 26.1449 146.43 25.9008 146.637 25.608V22.4783ZM157.251 27.3467C156.91 27.7249 156.471 28.0422 155.934 28.2984C155.409 28.5546 154.811 28.6828 154.14 28.6828C153.188 28.6828 152.475 28.4387 151.999 27.9507C151.523 27.4626 151.285 26.7793 151.285 25.9008V19.6232H153.609V24.9857C153.609 25.5714 153.75 25.9923 154.03 26.2486C154.311 26.4926 154.714 26.6146 155.238 26.6146C155.653 26.6146 156.037 26.517 156.391 26.3218C156.745 26.1266 157.032 25.8886 157.251 25.608V19.6232H159.576V28.4631H157.251V27.3467ZM161.316 24.034C161.316 23.1433 161.518 22.3502 161.92 21.6547C162.323 20.947 162.878 20.398 163.586 20.0075C164.294 19.6049 165.099 19.4036 166.002 19.4036C166.844 19.4036 167.551 19.5561 168.125 19.8611C168.71 20.1662 169.168 20.5505 169.497 21.0142L167.978 22.4234C167.539 21.7889 166.917 21.4717 166.112 21.4717C165.404 21.4717 164.824 21.7096 164.373 22.1855C163.934 22.6491 163.714 23.2653 163.714 24.034C163.714 24.8027 163.934 25.425 164.373 25.9008C164.824 26.3767 165.404 26.6146 166.112 26.6146C166.502 26.6146 166.856 26.5353 167.173 26.3767C167.49 26.2059 167.759 25.9679 167.978 25.6629L169.497 27.0722C169.168 27.5358 168.71 27.9202 168.125 28.2252C167.551 28.5302 166.844 28.6828 166.002 28.6828C165.099 28.6828 164.294 28.4875 163.586 28.0971C162.878 27.6944 162.323 27.1454 161.92 26.4499C161.518 25.7422 161.316 24.9369 161.316 24.034ZM176.325 27.548C176.02 27.9019 175.617 28.1825 175.117 28.3899C174.629 28.5851 174.098 28.6828 173.524 28.6828C173.024 28.6828 172.536 28.5729 172.06 28.3533C171.597 28.1337 171.212 27.8043 170.907 27.365C170.602 26.9136 170.45 26.3767 170.45 25.7544C170.45 25.1077 170.602 24.577 170.907 24.1621C171.212 23.7351 171.597 23.4239 172.06 23.2287C172.524 23.0335 173.012 22.9359 173.524 22.9359C174.122 22.9359 174.665 23.0274 175.153 23.2104C175.641 23.3934 176.032 23.6619 176.325 24.0157V22.7895C176.325 22.338 176.148 21.9781 175.794 21.7096C175.44 21.4412 174.97 21.307 174.385 21.307C173.421 21.307 172.56 21.6547 171.804 22.3502L170.925 20.7945C171.45 20.3309 172.042 19.9831 172.701 19.7513C173.372 19.5195 174.067 19.4036 174.787 19.4036C175.922 19.4036 176.849 19.6659 177.569 20.1906C178.289 20.7152 178.649 21.5693 178.649 22.7529V28.4631H176.325V27.548ZM176.325 25.242C176.142 24.9979 175.879 24.8088 175.538 24.6746C175.208 24.5404 174.848 24.4733 174.458 24.4733C173.982 24.4733 173.585 24.5953 173.268 24.8393C172.951 25.0833 172.792 25.4067 172.792 25.8093C172.792 26.212 172.951 26.5292 173.268 26.761C173.585 26.9929 173.982 27.1088 174.458 27.1088C174.848 27.1088 175.208 27.0417 175.538 26.9075C175.879 26.7732 176.142 26.5841 176.325 26.3401V25.242ZM183.919 28.6828C183.102 28.6828 182.48 28.4753 182.053 28.0605C181.626 27.6456 181.412 27.0478 181.412 26.2669V21.6547H179.948V19.6232H181.412V17.2073H183.755V19.6232H185.548V21.6547H183.755V25.6446C183.755 25.9252 183.828 26.1571 183.974 26.3401C184.121 26.5231 184.316 26.6146 184.56 26.6146C184.731 26.6146 184.889 26.5902 185.036 26.5414C185.182 26.4926 185.292 26.4316 185.365 26.3584L185.859 28.1154C185.432 28.4936 184.786 28.6828 183.919 28.6828ZM188.292 18.3237C187.913 18.3237 187.584 18.1895 187.303 17.9211C187.035 17.6405 186.901 17.311 186.901 16.9328C186.901 16.5545 187.035 16.2312 187.303 15.9628C187.584 15.6821 187.913 15.5418 188.292 15.5418C188.682 15.5418 189.011 15.676 189.28 15.9445C189.548 16.2129 189.683 16.5423 189.683 16.9328C189.683 17.311 189.548 17.6405 189.28 17.9211C189.011 18.1895 188.682 18.3237 188.292 18.3237ZM187.139 19.6232H189.463V28.4631H187.139V19.6232ZM195.867 28.6828C194.928 28.6828 194.104 28.4753 193.397 28.0605C192.689 27.6456 192.146 27.0844 191.768 26.3767C191.39 25.669 191.2 24.8881 191.2 24.034C191.2 23.1921 191.39 22.4173 191.768 21.7096C192.146 21.002 192.689 20.4407 193.397 20.0258C194.104 19.611 194.928 19.4036 195.867 19.4036C196.819 19.4036 197.649 19.611 198.357 20.0258C199.064 20.4407 199.607 21.002 199.985 21.7096C200.364 22.4173 200.553 23.1921 200.553 24.034C200.553 24.8881 200.364 25.669 199.985 26.3767C199.607 27.0844 199.064 27.6456 198.357 28.0605C197.649 28.4753 196.819 28.6828 195.867 28.6828ZM195.867 26.6146C196.563 26.6146 197.112 26.3706 197.515 25.8825C197.929 25.3823 198.137 24.7661 198.137 24.034C198.137 23.3141 197.929 22.7102 197.515 22.2221C197.112 21.7218 196.563 21.4717 195.867 21.4717C195.172 21.4717 194.623 21.7218 194.22 22.2221C193.818 22.7102 193.616 23.3141 193.616 24.034C193.616 24.7661 193.818 25.3823 194.22 25.8825C194.623 26.3706 195.172 26.6146 195.867 26.6146ZM208.244 23.1189C208.244 22.5332 208.103 22.1123 207.823 21.8561C207.542 21.5998 207.139 21.4717 206.615 21.4717C206.188 21.4717 205.797 21.5754 205.443 21.7828C205.102 21.9781 204.821 22.2221 204.602 22.5149V28.4631H202.277V19.6232H204.602V20.7762C204.919 20.398 205.346 20.0746 205.883 19.8062C206.42 19.5378 207.024 19.4036 207.695 19.4036C208.646 19.4036 209.36 19.6537 209.836 20.154C210.324 20.6542 210.568 21.3436 210.568 22.2221V28.4631H208.244V23.1189Z" fill="#048F46"/>
<path d="M35.6531 25.2796C35.6531 27.7297 33.9283 30.7285 31.8115 31.9437L22.2661 37.4515C20.1492 38.6667 16.6799 38.6667 14.5631 37.4515L5.0177 31.9437C2.90086 30.7285 1.17603 27.7297 1.17603 25.2796V14.2642C1.17603 11.8141 2.90086 8.81527 5.0177 7.60004L14.5631 2.09233C16.6799 0.877102 20.1492 0.877102 22.2661 2.09233L31.8115 7.60004C33.9283 8.81527 35.6531 11.8141 35.6531 14.2642V25.2796Z" fill="#EAF3EA"/>
<path d="M18.4048 39.5487C16.8171 39.5487 15.2099 39.1959 13.9751 38.4707L4.42969 32.963C1.94044 31.5322 0 28.1413 0 25.2796V14.2642C0 11.3829 1.94044 8.01167 4.42969 6.58084L13.9751 1.07312C16.4643 -0.357707 20.3648 -0.357707 22.8541 1.07312L32.3995 6.58084C34.8887 8.01167 36.8292 11.4025 36.8292 14.2642V25.2796C36.8292 28.1609 34.8887 31.5322 32.3995 32.963L22.8541 38.4707C21.5996 39.1763 20.012 39.5487 18.4048 39.5487ZM18.4048 2.32755C17.2092 2.32755 16.0331 2.58235 15.1511 3.09196L5.60572 8.59968C3.84168 9.6189 2.35205 12.2062 2.35205 14.2446V25.26C2.35205 27.2985 3.84168 29.8857 5.60572 30.9049L15.1511 36.4126C16.9152 37.4319 19.914 37.4319 21.678 36.4126L31.2234 30.9049C32.9875 29.8857 34.4771 27.2985 34.4771 25.26V14.2446C34.4771 12.2062 32.9875 9.6189 31.2234 8.59968L21.678 3.09196C20.796 2.58235 19.6004 2.32755 18.4048 2.32755Z" fill="#048F46"/>
<path d="M8.17334 21.6732L10.8586 27.8865L15.4647 11.6182H23.05" fill="#EAF3EA"/>
<path d="M10.8586 29.0626C10.3882 29.0626 9.95698 28.7882 9.78058 28.357L7.09533 22.1436C6.84052 21.5556 7.11493 20.85 7.70294 20.5952C8.29095 20.3404 8.99657 20.6148 9.25137 21.2028L10.6234 24.3781L14.3279 11.285C14.4651 10.7754 14.9355 10.4226 15.4647 10.4226H23.0501C23.6969 10.4226 24.2261 10.9518 24.2261 11.5986C24.2261 12.2454 23.6969 12.7747 23.0501 12.7747H16.3467L11.9954 28.1806C11.8582 28.651 11.4466 29.0038 10.937 29.043C10.9174 29.0626 10.8782 29.0626 10.8586 29.0626Z" fill="#048F46"/>
<path d="M28.6558 29.0821L17.5424 29.0625C16.8955 29.0625 16.3663 28.5333 16.3663 27.8865C16.3663 27.2397 16.8955 26.7104 17.5424 26.7104L28.6558 26.7301C29.3026 26.7301 29.8318 27.2593 29.8318 27.9061C29.8318 28.5529 29.3026 29.0821 28.6558 29.0821Z" fill="#048F46"/>
<path d="M25.8529 20.9481L17.5228 20.9285C16.876 20.9285 16.3467 20.3993 16.3467 19.7524C16.3467 19.1056 16.876 18.5764 17.5228 18.5764L25.8529 18.596C26.4997 18.596 27.029 19.1252 27.029 19.772C27.029 20.4189 26.4997 20.9481 25.8529 20.9481Z" fill="#048F46"/>
</svg>
